Joe Jonas - See No More - 2011 (UJ.rip)
-----------------------------------------
Format                           : AVI
Format/Info                      : Audio Video Interleave
File size                        : 28.5 MiB
Duration                         : 3mn 55s
Overall bit rate                 : 1 016 Kbps
Writing application              : Lavf52.39.1

Video
ID                               : 0
Format                           : MPEG-4 Visual
Format profile                   : Advanced Simple@L1
Format settings, BVOP            : 2
Format settings, QPel            : No
Format settings, GMC             : No warppoints
Format settings, Matrix          : Default (H.263)
Codec ID                         : divx
Codec ID/Info                    : Mainly used by Google
Codec ID/Hint                    : DivX
Duration                         : 3mn 55s
Bit rate                         : 939 Kbps
Width                            : 720 pixels
Height                           : 480 pixels
Display aspect ratio             : 3:2
Frame rate                       : 23.917 fps
Standard                         : NTSC
Color space                      : YUV
Chroma subsampling               : 4:2:0
Bit depth                        : 8 bits
Scan type                        : Progressive
Compression mode                 : Lossy
Bits/(Pixel*Frame)               : 0.114
Stream size                      : 26.4 MiB (92%)
Writing library                  : Lavc52.37.0

Audio
ID                               : 1
Format                           : MPEG Audio
Format version                   : Version 1
Format profile                   : Layer 3
Mode                             : Joint stereo
Mode extension                   : MS Stereo
Codec ID                         : 55
Codec ID/Hint                    : MP3
Duration                         : 3mn 55s
Bit rate mode                    : Constant
Bit rate                         : 64.0 Kbps
Channel(s)                       : 2 channels
Sampling rate                    : 44.1 KHz
Compression mode                 : Lossy
Stream size                      : 1.80 MiB (6%)
Alignment                        : Aligned on interleaves
Interleave, duration             : 26 ms (0.62 video frame)

-------------------------------------------------------------
 
http://thepiratebay.org/user/utpaljoshi123